<svg width="50" height="51" viewBox="0 0 50 51" fill="none" xmlns="http://www.w3.org/2000/svg">
<g id="logo/instagram">
<path id="Vector" d="M34.1162 6.96472C36.5315 6.97193 38.8458 7.9346 40.5537 9.64248C42.2616 11.3504 43.2242 13.6647 43.2314 16.08V34.3085C43.2242 36.7238 42.2616 39.0381 40.5537 40.7459C38.8458 42.4538 36.5315 43.4165 34.1162 43.4237H15.8877C13.4724 43.4165 11.1581 42.4538 9.45022 40.7459C7.74234 39.0381 6.77967 36.7238 6.77246 34.3085V16.08C6.77967 13.6647 7.74234 11.3504 9.45022 9.64248C11.1581 7.9346 13.4724 6.97193 15.8877 6.96472H34.1162ZM34.1162 3.31921H15.8877C8.86914 3.31921 3.12695 9.0614 3.12695 16.08V34.3085C3.12695 41.327 8.86914 47.0692 15.8877 47.0692H34.1162C41.1348 47.0692 46.877 41.327 46.877 34.3085V16.08C46.877 9.0614 41.1348 3.31921 34.1162 3.31921Z" fill="#F7F8FC"/>
<path id="Vector_2" d="M36.8574 16.0955C36.3151 16.0955 35.7849 15.9347 35.334 15.6334C34.883 15.332 34.5315 14.9038 34.324 14.4027C34.1164 13.9016 34.0621 13.3503 34.1679 12.8183C34.2737 12.2864 34.5349 11.7978 34.9184 11.4143C35.3019 11.0308 35.7905 10.7696 36.3225 10.6638C36.8544 10.558 37.4058 10.6123 37.9068 10.8198C38.4079 11.0274 38.8362 11.3788 39.1375 11.8298C39.4388 12.2808 39.5996 12.8109 39.5996 13.3533C39.6004 13.7136 39.53 14.0706 39.3925 14.4036C39.255 14.7367 39.053 15.0393 38.7982 15.2941C38.5434 15.5488 38.2408 15.7508 37.9078 15.8883C37.5747 16.0259 37.2178 16.0963 36.8574 16.0955Z" fill="#F7F8FC"/>
<path id="Vector_3" d="M25 17.8989C26.4422 17.8989 27.8521 18.3265 29.0512 19.1278C30.2504 19.929 31.185 21.0679 31.7369 22.4003C32.2888 23.7328 32.4332 25.1989 32.1519 26.6135C31.8705 28.028 31.176 29.3273 30.1562 30.3471C29.1364 31.3669 27.8371 32.0614 26.4226 32.3427C25.0081 32.6241 23.5419 32.4797 22.2095 31.9278C20.877 31.3759 19.7382 30.4412 18.9369 29.2421C18.1357 28.0429 17.708 26.6331 17.708 25.1909C17.7101 23.2575 18.479 21.404 19.8461 20.0369C21.2131 18.6699 23.0667 17.9009 25 17.8989ZM25 14.2534C22.8368 14.2534 20.7221 14.8948 18.9235 16.0967C17.1248 17.2985 15.7229 19.0067 14.8951 21.0053C14.0672 23.0038 13.8506 25.203 14.2727 27.3247C14.6947 29.4463 15.7364 31.3952 17.266 32.9248C18.7957 34.4545 20.7445 35.4962 22.8662 35.9182C24.9879 36.3402 27.187 36.1236 29.1856 35.2958C31.1842 34.468 32.8924 33.0661 34.0942 31.2674C35.296 29.4687 35.9375 27.3541 35.9375 25.1909C35.9375 22.2901 34.7852 19.5081 32.734 17.4569C30.6828 15.4057 27.9008 14.2534 25 14.2534Z" fill="#F7F8FC"/>
</g>
</svg>
